<svg width="106" height="77" viewBox="0 0 106 77" fill="none" xmlns="http://www.w3.org/2000/svg">
<path d="M53.2962 23.3606C53.4338 23.2756 53.5834 23.2118 53.74 23.1711C54.4099 23.0474 55.0981 23.062 55.7621 23.2141C59.4569 23.7822 63.437 23.7972 67.1353 24.0513C73.3481 24.4809 73.1623 24.1448 75.6049 26.1362C78.0988 28.1585 80.2101 30.9906 82.4703 33.2983C84.7068 35.5811 86.9836 37.8255 89.2716 40.0564C90.3963 41.153 95.1706 45.122 95.8202 46.4896C95.3466 46.8024 89.4509 51.6987 87.8901 53.3967L77.4315 64.7738C77.0198 65.3179 76.4418 65.7126 75.7852 65.898C74.9286 66.0337 74.5727 65.4729 73.9709 64.9065C66.9576 58.2697 59.9771 51.5958 52.957 44.9661C50.9376 43.0519 50.1542 42.5901 50.557 40.1141C51.0441 37.1239 51.5389 34.1275 51.9483 31.1143C52.1514 29.606 52.1129 28.0513 52.2811 26.5341C52.4019 25.435 52.3362 23.9578 53.2962 23.3606Z" stroke="#FCBC6D" stroke-width="2"/>
<path d="M71.4944 35.182C71.4944 35.182 67.7877 32.7625 64.3844 36.4838C60.9811 40.205 62.4144 44.4132 66.4372 44.6771C70.46 44.9409 72.1707 36.8751 76.9141 39.7621C81.6575 42.6491 78.4907 48.3925 75.1464 50.1927C71.802 51.9929 69.9381 49.2262 69.9381 49.2262" stroke="#4895ff" stroke-width="2"/>
<path d="M62.9004 34.9395C62.9004 34.9395 73.5977 42.5756 79.2458 50.3685" stroke="#4895ff" stroke-width="2"/>
<path d="M1.17134 21.8499C1.17134 21.8499 19.1152 -3.0991 53.2575 23.0685" stroke="#FCBC6D" stroke-width="2"/>
</svg>
